<svg xmlns="http://www.w3.org/2000/svg" width="60" height="60" fill="none"><path fill="#F1CDB3" d="m52.898 25.498-5.755-15.75v-8.32A1.43 1.43 0 0 0 45.714 0H14.286c-.79 0-1.429.64-1.429 1.429v8.318l-5.755 15.75a16.9 16.9 0 0 0-1.03 5.825v23.755A4.93 4.93 0 0 0 10.994 60h38.01a4.93 4.93 0 0 0 4.923-4.923V31.322c0-1.993-.346-3.953-1.03-5.824M15.714 2.858h28.572V8.57H15.714zm35.358 47.274H30.908a1.429 1.429 0 0 0 0 2.857h20.164v2.087a2.07 2.07 0 0 1-2.067 2.067h-38.01a2.07 2.07 0 0 1-2.066-2.067V31.322a14.1 14.1 0 0 1 .857-4.844l5.499-15.05h29.43l5.5 15.05c.567 1.552.857 3.191.856 4.844z"/><path fill="#F1CDB3" d="M35.617 33.805a6.15 6.15 0 0 0-6.066-5.173 6.15 6.15 0 0 0-6.067 5.173 6.18 6.18 0 0 0-3.794 6.16c.227 2.999 2.66 5.427 5.659 5.65a6.14 6.14 0 0 0 3.326-.69 1.85 1.85 0 0 1 1.75.001 6.13 6.13 0 0 0 3.327.689c2.998-.223 5.431-2.651 5.659-5.649a6.18 6.18 0 0 0-3.794-6.161m.945 5.944a3.294 3.294 0 0 1-3.022 3.017 3.3 3.3 0 0 1-1.781-.367 4.73 4.73 0 0 0-4.416 0 3.3 3.3 0 0 1-1.782.367 3.294 3.294 0 0 1-3.022-3.017 3.3 3.3 0 0 1 2.594-3.474 1.43 1.43 0 0 0 1.134-1.428l-.002-.072a3.29 3.29 0 0 1 3.285-3.286 3.29 3.29 0 0 1 3.286 3.28l-.002.078a1.43 1.43 0 0 0 1.134 1.428 3.3 3.3 0 0 1 2.594 3.474M29.55 25.775a4.65 4.65 0 0 0 4.643-4.643 4.65 4.65 0 0 0-4.642-4.643 4.65 4.65 0 0 0-4.643 4.643 4.65 4.65 0 0 0 4.643 4.643m0-6.428c.985 0 1.786.8 1.786 1.785s-.8 1.786-1.785 1.786a1.79 1.79 0 0 1-1.786-1.786c0-.985.801-1.786 1.786-1.786m-5.358 7.31a4.65 4.65 0 0 0-4.643-4.643 4.65 4.65 0 0 0-4.643 4.643A4.65 4.65 0 0 0 19.55 31.3a4.65 4.65 0 0 0 4.643-4.643m-4.643 1.786a1.79 1.79 0 0 1-1.786-1.786c0-.985.8-1.786 1.786-1.786a1.787 1.787 0 0 1 0 3.572m20-6.43a4.65 4.65 0 0 0-4.642 4.643 4.65 4.65 0 0 0 4.643 4.643 4.65 4.65 0 0 0 4.642-4.643 4.65 4.65 0 0 0-4.642-4.643m0 6.429a1.79 1.79 0 0 1-1.785-1.786c0-.985.8-1.786 1.786-1.786a1.787 1.787 0 0 1 0 3.572m-14.859 21.69h-.347a1.429 1.429 0 0 0 0 2.857h.347a1.429 1.429 0 0 0 0-2.857"/></svg>