<svg xmlns="http://www.w3.org/2000/svg" width="61" height="60" fill="none"><path fill="#F1CDB3" d="M56.004 12.712h-7.023v-.203a6.596 6.596 0 0 0-6.588-6.588 6.596 6.596 0 0 0-6.588 6.588v.202h-8.248a4.93 4.93 0 0 0-4.925 4.926V23.2h-7.386a4.29 4.29 0 0 0-4.017 2.761L6.97 38.869a2 2 0 0 1-.15.08c-.244.122-.7.308-1.484.5A5.7 5.7 0 0 0 .977 45v6.1a3.707 3.707 0 0 0 3.703 3.703h5.224A6.38 6.38 0 0 0 16.164 60c3.11 0 5.707-2.244 6.259-5.198h18.424C41.4 57.756 43.995 60 47.107 60s5.707-2.243 6.259-5.197h3.318c2.54 0 4.245-1.707 4.245-4.246V20.08c0-6.65-3.444-7.368-4.925-7.368m-17.855-.203a4.25 4.25 0 0 1 4.244-4.244 4.25 4.25 0 0 1 4.245 4.244v.202h-8.49zM13.44 26.739a1.95 1.95 0 0 1 1.805-1.193h7.386v13.282H9.45zm2.722 30.918a4.03 4.03 0 0 1-4.025-4.025l.002-.082q0-.063.003-.126l.002-.02a4.03 4.03 0 0 1 4.018-3.798 4.03 4.03 0 0 1 3.942 3.208l.002.007q.019.092.033.188l.002.01.018.138.008.063.008.11.007.094.003.1.003.108a4.03 4.03 0 0 1-4.026 4.025m30.944 0a4.03 4.03 0 0 1-4.022-4.182l.001-.05q.004-.058.01-.115l.006-.09.005-.037q.02-.183.056-.362l.002-.01a4.03 4.03 0 0 1 3.942-3.205 4.03 4.03 0 0 1 4.025 4.026 4.03 4.03 0 0 1-4.025 4.025m9.577-5.197h-3.316l-.013-.062a7 7 0 0 0-.146-.588l-.033-.11-.062-.182-.035-.098a6 6 0 0 0-.082-.208l-.026-.066a7 7 0 0 0-.123-.27l-.017-.033a7 7 0 0 0-.116-.227l-.046-.082-.1-.172-.056-.092a6 6 0 0 0-.336-.487l-.113-.143-.068-.085-.128-.147-.064-.072a6 6 0 0 0-.164-.173l-.036-.037a6 6 0 0 0-.212-.202l-.047-.041q-.084-.075-.172-.15l-.078-.062q-.073-.06-.15-.117l-.09-.067a6 6 0 0 0-.648-.416l-.098-.054-.174-.09-.087-.043a7 7 0 0 0-.232-.105l-.036-.016a6 6 0 0 0-.274-.109l-.08-.028-.2-.068-.107-.031-.18-.051-.116-.03a6 6 0 0 0-.474-.097l-.123-.02-.185-.023-.118-.013-.206-.016-.1-.007a7 7 0 0 0-.62 0l-.101.007-.206.016-.118.013a7 7 0 0 0-.607.1 6 6 0 0 0-.47.12l-.108.033-.196.066-.084.03q-.139.05-.274.107l-.044.02q-.113.049-.223.101l-.092.046-.169.087-.102.056a7 7 0 0 0-.501.312l-.14.1-.096.07-.143.113-.085.068-.16.139-.059.051q-.105.098-.209.2l-.05.052q-.075.077-.15.157l-.072.081q-.06.067-.119.137l-.074.092a6 6 0 0 0-.441.62l-.062.1-.092.16-.053.094q-.054.1-.104.203l-.03.057a6 6 0 0 0-.12.266l-.033.083-.075.19-.038.109-.059.171-.036.119a6 6 0 0 0-.145.585q-.005.03-.012.059h-18.42l-.014-.061-.025-.12a6 6 0 0 0-.12-.466q-.016-.057-.035-.114l-.06-.176-.036-.105-.077-.194-.032-.08a6 6 0 0 0-.12-.266l-.027-.052q-.052-.106-.107-.208l-.052-.092-.093-.162-.062-.1a6 6 0 0 0-.44-.62l-.076-.091-.118-.137-.073-.082-.148-.155q-.025-.028-.052-.054a6 6 0 0 0-.208-.199l-.06-.053-.159-.137-.086-.07-.141-.11q-.048-.037-.097-.071a7 7 0 0 0-.489-.325l-.151-.087-.104-.057-.167-.086-.093-.047a7 7 0 0 0-.22-.1l-.047-.02a6 6 0 0 0-.273-.108l-.086-.03-.194-.066-.11-.033a6 6 0 0 0-.768-.177l-.123-.02-.185-.023-.118-.013-.206-.016-.1-.007a6 6 0 0 0-.62 0l-.101.007-.206.016-.118.013-.185.024-.123.02a6 6 0 0 0-.472.096l-.12.03-.175.05-.11.033q-.098.031-.192.065l-.089.03q-.137.052-.271.108l-.054.024-.213.097q-.05.023-.098.049l-.163.083-.106.06a6 6 0 0 0-.637.408l-.1.073-.136.108q-.046.036-.09.073-.077.063-.15.13l-.07.06q-.105.096-.206.197l-.061.063-.139.145-.077.088-.114.13-.078.098a6 6 0 0 0-.436.612l-.066.106q-.045.076-.088.153l-.056.1-.098.192-.035.068a6 6 0 0 0-.12.264l-.036.091q-.038.09-.072.182l-.04.113q-.03.084-.056.167l-.037.121a7 7 0 0 0-.118.458q-.015.063-.027.127l-.012.057H4.68c-.75 0-1.36-.61-1.36-1.36V45a3.36 3.36 0 0 1 2.571-3.275 10.5 10.5 0 0 0 1.71-.555h42.562a1.172 1.172 0 0 0 0-2.343H24.976v-21.19a2.584 2.584 0 0 1 2.581-2.582h28.447c2.246 0 2.582 3.148 2.582 5.025v30.477c0 1.655-1.192 1.902-1.902 1.902"/><path fill="#F1CDB3" d="M51.437 24.815a3.24 3.24 0 0 0-2.522-3.154q.013-.12.016-.244a3.5 3.5 0 0 0-1.003-2.553 3.68 3.68 0 0 0-2.625-1.108 3.62 3.62 0 0 0-2.908 1.468 3.63 3.63 0 0 0-2.912-1.468 3.67 3.67 0 0 0-2.606 1.094 3.53 3.53 0 0 0-1.007 2.812 3.24 3.24 0 0 0-2.52 3.153c0 1.301.773 2.425 1.884 2.937a5.56 5.56 0 0 0-1.24 3.49c0 3.06 2.49 5.55 5.55 5.55a5.55 5.55 0 0 0 2.85-.787 5.55 5.55 0 0 0 2.848.788c3.06 0 5.55-2.49 5.55-5.55a5.56 5.56 0 0 0-1.24-3.491 3.24 3.24 0 0 0 1.885-2.937M45.303 20.1c.354 0 .699.145.945.398.228.235.349.538.34.853-.02.718-.602 1.31-1.298 1.317-.187 0-.37-.04-.54-.117l-.063-.03a1.28 1.28 0 0 1-.668-1.132c.003-.711.58-1.29 1.284-1.29m-6.753.391a1.3 1.3 0 0 1 .933-.392 1.287 1.287 0 0 1 1.185 1.79 1.3 1.3 0 0 1-.57.633l-.114.054a1.2 1.2 0 0 1-.482.092 1.34 1.34 0 0 1-1.304-1.307 1.2 1.2 0 0 1 .352-.87m-2.857 4.324a.89.89 0 0 1 1.778 0q-.001.151-.049.287l-.084.179a.889.889 0 0 1-1.645-.466m9.549 9.634a3.2 3.2 0 0 1-2.086-.772 1.17 1.17 0 0 0-1.526 0 3.205 3.205 0 0 1-5.292-2.434c0-1.34.845-2.551 2.103-3.012a1.17 1.17 0 0 0 .762-.982c.033-.322.115-.637.242-.935q.062-.12.116-.243a3.19 3.19 0 0 1 2.832-1.697 3.2 3.2 0 0 1 1.441.338c.594.297 1.08.772 1.392 1.359q.053.124.116.243c.127.298.208.613.241.936a1.17 1.17 0 0 0 .762.98 3.22 3.22 0 0 1 2.103 3.013 3.21 3.21 0 0 1-3.206 3.206m2.963-8.745a.89.89 0 0 1-.756-.423l-.085-.179a.887.887 0 0 1 .84-1.176.89.89 0 0 1 0 1.778m7.816 14.073a1.172 1.172 0 0 0-2.32.228 1.18 1.18 0 0 0 .722 1.082q.108.045.22.067a1.15 1.15 0 0 0 .88-.174 1.2 1.2 0 0 0 .43-.526 1.2 1.2 0 0 0 .09-.449 1 1 0 0 0-.023-.228M42.393 0c-.647 0-1.172.525-1.172 1.172v1.962a1.172 1.172 0 0 0 2.344 0V1.172C43.565.525 43.04 0 42.393 0m-4.937 4.557L35.82 3.272a1.171 1.171 0 1 0-1.447 1.844L36.01 6.4a1.17 1.17 0 0 0 1.236.133 1.17 1.17 0 0 0 .211-1.976M50.611 3.47a1.17 1.17 0 0 0-1.645-.198L47.33 4.556A1.172 1.172 0 1 0 48.778 6.4l1.635-1.284c.51-.4.598-1.137.198-1.646"/></svg>