<svg xmlns="http://www.w3.org/2000/svg" width="22" height="32" fill="none"><path fill="#F1CDB3" d="M11 0C4.935 0 0 4.785 0 10.667c0 1.765.455 3.516 1.32 5.069l9.079 15.92A.69.69 0 0 0 11 32a.69.69 0 0 0 .602-.344l9.08-15.926A10.4 10.4 0 0 0 22 10.667C22 4.785 17.065 0 11 0m8.476 15.09L11 29.957l-8.473-14.86a9.1 9.1 0 0 1-1.152-4.43c0-5.146 4.318-9.333 9.625-9.333s9.625 4.187 9.625 9.334a9.1 9.1 0 0 1-1.149 4.424"/><path fill="#F1CDB3" d="M11 5.333c-3.033 0-5.5 2.393-5.5 5.334S7.967 16 11 16s5.5-2.393 5.5-5.333-2.467-5.334-5.5-5.334m0 9.334c-2.275 0-4.125-1.795-4.125-4s1.85-4 4.125-4 4.125 1.794 4.125 4-1.85 4-4.125 4"/></svg>