<svg xmlns="http://www.w3.org/2000/svg" width="60" height="60" fill="none"><path fill="#F1CDB3" d="M57.297 10.251c-1.56-1.254-3.758-2.37-6.535-3.315C45.198 5.043 37.825 4 30 4S14.8 5.043 9.238 6.936c-2.778.945-4.976 2.06-6.535 3.315C.909 11.694 0 13.286 0 14.983v13.116c0 1.697.91 3.289 2.703 4.732 1.559 1.254 3.757 2.37 6.535 3.315 5.285 1.798 12.203 2.828 19.59 2.927v4.703h-4.041a5.12 5.12 0 0 0-5.024-4.16 5.12 5.12 0 0 0-5.113 5.112c0 1.226.435 2.387 1.204 3.297a5.1 5.1 0 0 0-1.204 3.296 5.12 5.12 0 0 0 5.113 5.113 5.12 5.12 0 0 0 5.024-4.16h10.426a5.12 5.12 0 0 0 5.024 4.16 5.12 5.12 0 0 0 5.113-5.113 5.1 5.1 0 0 0-1.204-3.296 5.1 5.1 0 0 0 1.204-3.297 5.12 5.12 0 0 0-5.113-5.112 5.12 5.12 0 0 0-5.024 4.16h-4.041v-4.703c7.387-.099 14.305-1.129 19.59-2.927 2.778-.946 4.976-2.06 6.535-3.315C59.091 31.388 60 29.796 60 28.099V14.983c0-1.697-.91-3.289-2.703-4.732M36.302 46.12a1.17 1.17 0 0 0 1.17-1.236 2.77 2.77 0 0 1 2.765-2.923 2.77 2.77 0 0 1 2.77 2.769c0 .935-.47 1.801-1.254 2.316a1.172 1.172 0 0 0 0 1.96 2.77 2.77 0 0 1 1.253 2.316 2.77 2.77 0 0 1-2.77 2.77 2.77 2.77 0 0 1-2.764-2.924 1.173 1.173 0 0 0-1.17-1.236H23.698a1.173 1.173 0 0 0-1.17 1.236l.004.154a2.77 2.77 0 0 1-2.77 2.77 2.77 2.77 0 0 1-2.769-2.77c0-.935.469-1.801 1.254-2.316a1.17 1.17 0 0 0 0-1.96 2.76 2.76 0 0 1-1.254-2.316 2.77 2.77 0 0 1 2.77-2.77 2.77 2.77 0 0 1 2.764 2.924 1.17 1.17 0 0 0 1.17 1.236zM30 36.74a2.826 2.826 0 0 1-2.823-2.823A2.826 2.826 0 0 1 30 31.093a2.826 2.826 0 0 1 2.822 2.823A2.826 2.826 0 0 1 30 36.738m27.656-8.64c0 3.708-9.352 7.8-23.26 8.526a5.14 5.14 0 0 0 .657-3.786c4.548-.299 8.773-.977 12.297-1.983a1.172 1.172 0 0 0-.644-2.254c-3.616 1.032-8.027 1.705-12.785 1.956a5.155 5.155 0 0 0-7.858.017c-3.224-.154-6.29-.498-9.113-1.03a1.172 1.172 0 0 0-.433 2.304c2.632.495 5.46.834 8.425 1.013a5.17 5.17 0 0 0 .661 3.763c-13.908-.726-23.26-4.818-23.26-8.526v-8.685l.017.013a11 11 0 0 0 .821.652l.003.002q.13.096.267.19l.04.028q.129.088.261.175l.054.035.272.173.04.025c1.384.856 3.098 1.635 5.12 2.323C14.8 24.923 22.174 25.966 30 25.966c7.825 0 15.198-1.043 20.762-2.936 2.022-.688 3.735-1.467 5.12-2.323l.04-.024.272-.174.053-.035q.133-.087.26-.175l.041-.028q.136-.094.268-.19l.002-.002a13 13 0 0 0 .822-.652l.016-.013zM7.529 19.854c1.021-.466 2.417-1.002 4.273-1.523C16.845 16.917 23.308 16.14 30 16.14s13.154.778 18.197 2.192c1.856.52 3.253 1.056 4.273 1.523-4.85 2.162-12.788 3.768-22.47 3.768s-17.621-1.607-22.47-3.768m50.12-4.7a2 2 0 0 1-.025.205l-.002.01a2.5 2.5 0 0 1-.092.366l-.01.03a3 3 0 0 1-.086.22l-.04.085a3 3 0 0 1-.085.169l-.008.015c-.488.88-1.409 1.65-2.323 2.25-1.213-.699-3.16-1.592-6.148-2.43-5.243-1.47-11.93-2.279-18.83-2.279s-13.587.81-18.83 2.28c-2.988.837-4.935 1.73-6.149 2.43-.913-.601-1.834-1.371-2.322-2.251l-.008-.015a3 3 0 0 1-.086-.17l-.04-.084a3 3 0 0 1-.086-.22l-.01-.03a3 3 0 0 1-.092-.365l-.001-.01a2.3 2.3 0 0 1-.032-.377c0-4.086 11.358-8.64 27.656-8.64s27.656 4.554 27.656 8.64q0 .085-.008.172"/><path fill="#F1CDB3" d="M48.177 11.643a1.18 1.18 0 0 0-.498-.745 1.18 1.18 0 0 0-.88-.175 1.2 1.2 0 0 0-.6.32 1.19 1.19 0 0 0-.32 1.058 1.2 1.2 0 0 0 .32.6 1.3 1.3 0 0 0 .38.253 1.2 1.2 0 0 0 .45.09 1.2 1.2 0 0 0 .447-.09 1.2 1.2 0 0 0 .38-.253q.083-.082.146-.178a1.18 1.18 0 0 0 .174-.88M43.483 9.86C39.446 9.1 34.85 8.7 30.193 8.7c-6.444 0-12.675.764-17.543 2.154a1.172 1.172 0 0 0 .643 2.254c4.665-1.332 10.667-2.065 16.9-2.065 4.514 0 8.96.388 12.857 1.121a1.172 1.172 0 0 0 .433-2.303M14.121 29.61a1.2 1.2 0 0 0-.175-.423 1.2 1.2 0 0 0-.325-.325 1.18 1.18 0 0 0-1.478.147 1.1 1.1 0 0 0-.253.38 1.2 1.2 0 0 0-.09.449 1.18 1.18 0 0 0 .521.973q.095.066.203.108.106.046.219.067a1.15 1.15 0 0 0 .879-.175 1.16 1.16 0 0 0 .432-.526 1.15 1.15 0 0 0 .067-.676"/></svg>