<svg xmlns="http://www.w3.org/2000/svg" width="60" height="60" fill="none"><path fill="#F1CDB3" d="M51.213 8.787C45.547 3.12 38.013 0 30 0S14.453 3.12 8.787 8.787C3.12 14.453 0 21.987 0 30s3.12 15.547 8.787 21.213C14.453 56.88 21.987 60 30 60s15.547-3.12 21.213-8.787C56.88 45.547 60 38.013 60 30s-3.12-15.547-8.787-21.213M10.631 49.368C5.904 44.641 3.12 38.491 2.674 31.883c.716.025 1.448.093 2.188.203 5.303.787 10.64 3.637 15.027 8.025 4.388 4.387 7.238 9.724 8.025 15.027q.162 1.082.201 2.175a27.28 27.28 0 0 1-17.484-7.945m20.095 8a22 22 0 0 0-.231-2.614c-.87-5.852-3.981-11.708-8.761-16.488s-10.636-7.891-16.489-8.76q-1.306-.195-2.627-.233a28 28 0 0 1 .19-2.605c.93.03 1.874.116 2.82.257 6.403.95 12.778 4.323 17.95 9.496 5.173 5.173 8.546 11.548 9.497 17.95a25 25 0 0 1 .256 2.805 28 28 0 0 1-2.605.192m18.643-8a27.23 27.23 0 0 1-13.444 7.367 28 28 0 0 0-.27-2.747c-1.032-6.952-4.666-13.846-10.232-19.411s-12.459-9.2-19.41-10.233a28 28 0 0 0-2.758-.27l-.007.006c1.108-5.056 3.635-9.7 7.384-13.449a27.2 27.2 0 0 1 12.803-7.217 27 27 0 0 0 .287 3.22c1.033 6.952 4.667 13.846 10.233 19.411 5.565 5.566 12.459 9.2 19.41 10.233 1.07.16 2.15.255 3.23.287l.012-.02c-1.175 4.814-3.645 9.23-7.239 12.823m7.738-15.402c-1.1-.011-2.226-.1-3.358-.269-6.402-.95-12.777-4.324-17.95-9.496-5.172-5.173-8.545-11.548-9.496-17.95a24.5 24.5 0 0 1-.269-3.343q1.3-.188 2.611-.253a21.6 21.6 0 0 0 .238 3.213c.87 5.852 3.981 11.708 8.761 16.488a1.305 1.305 0 0 0 1.845-1.845c-4.387-4.387-7.237-9.723-8.025-15.027a19 19 0 0 1-.212-2.833c6.591.298 13.095 2.958 18.117 7.98 4.877 4.878 7.688 11.271 7.993 18.117a19 19 0 0 1-2.846-.212 1.305 1.305 0 0 0-.383 2.58c1.077.16 2.14.24 3.175.24h.05a28 28 0 0 1-.25 2.61"/><path fill="#F1CDB3" d="M46.152 25.775a1.31 1.31 0 0 0-1.305 1.304 1.31 1.31 0 0 0 1.305 1.305c.343 0 .68-.14.922-.383.244-.245.38-.576.382-.922 0-.343-.14-.68-.382-.922a1.3 1.3 0 0 0-.922-.382"/></svg>